# xmcd CD database file
#
# Track frame offsets:
#	150
#	18451
#	39113
#	64115
#	80479
#	100809
#	121923
#	136148
#	159214
#	177790
#	200478
#	216965
#	234288
#
# Disc length: 3398 seconds
#
# Revision: 0
# Processed by: cddbd v1.5.1PL2 Copyright (c) Steve Scherf et al.
# Submitted via: CDex 1.51
#
DISCID=9e0d440d
DTITLE=Horswood - Our Way
DYEAR=2006
DGENRE=Country
TTITLE0=Jesus And My Mum
TTITLE1=100 Points
TTITLE2=One Of These Days
TTITLE3=Something So Right
TTITLE4=Who I Am
TTITLE5=Broken
TTITLE6=When I Hold My Baby
TTITLE7=Our Way
TTITLE8=Ain't Seen Rain
TTITLE9=Home
TTITLE10=Driving My Tears
TTITLE11=Too Far Gone
TTITLE12=Cowboy's Fool
EXTD=YEAR: 2006
EXTT0=
EXTT1=
EXTT2=
EXTT3=
EXTT4=
EXTT5=
EXTT6=
EXTT7=
EXTT8=
EXTT9=
EXTT10=
EXTT11=
EXTT12=
PLAYORDER=
